PathFileType	4	(X/Y/Z)	D:\TRACE\spotREDO_2-26-24\spot_justArm_Motion_2_5-v60.trc
DataRate	CameraRate	NumFrames	NumMarkers	Units	OrigDataRate	OrigDataStartFrame	OrigNumFrames
100.00	100.00	      13	9	mm	100.00	5251	      7000
Frame#	Time	front left toe			Front right toe			aft left toe			aft right toe			Arm			FL body			FR body			AL Body			AR Body			
		X1	Y1	Z1	X2	Y2	Z2	X3	Y3	Z3	X4	Y4	Z4	X5	Y5	Z5	X6	Y6	Z6	X7	Y7	Z7	X8	Y8	Z8	X9	Y9	Z9	

5251	52.500	-287.64563	21.42669	-123.79778	136.04665	18.99865	-129.76968	-323.09506	19.16971	471.79193	103.50255	17.43513	448.23547	-35.63068	756.82068	-787.43347	-115.44218	567.22321	-188.86917	40.52745	572.67041	-182.18030	-160.11450	526.58057	692.30981	-13.44710	527.85620	701.06506	
5252	52.510	-288.69937	21.14919	-124.52870	134.79456	18.51386	-130.12401	-324.31055	20.00817	471.43002	102.62978	18.48675	448.10513	-36.18941	756.92853	-784.85260	-116.82524	566.46686	-189.53267	39.05444	571.93127	-182.85040	-161.78989	527.80731	691.83521	-14.49320	529.12354	700.53186	
5253	52.520	-289.81677	20.75263	-124.70438	133.96802	18.24694	-130.08252	-325.50519	21.11713	470.99094	101.17575	19.46583	447.84879	-37.02246	757.03131	-781.42920	-117.74942	565.48645	-190.38576	37.99877	570.85504	-183.48050	-163.29382	528.89819	691.09845	-15.69412	530.48853	700.03937	
5254	52.530	-290.53412	20.32867	-124.85464	132.71393	17.66365	-130.39694	-326.68805	21.92294	470.80948	100.26633	20.39576	447.60638	-38.14393	757.31891	-777.18958	-118.67158	564.64063	-191.15862	37.34384	570.12402	-184.05075	-164.96254	530.02271	690.45361	-17.43861	531.72986	699.41748	
5255	52.540	-291.70905	20.24422	-125.35559	131.91881	17.24011	-130.73763	-327.82089	22.62886	470.45013	98.61854	21.35248	447.24280	-38.01086	758.03192	-771.38483	-119.30971	563.85400	-192.06929	36.52525	569.26843	-184.89723	-166.46053	531.01715	689.40106	-19.36326	532.98035	698.73865	
5256	52.550	-292.62512	19.94351	-125.98409	131.08302	16.74980	-130.99678	-329.03043	23.54955	470.06436	97.94431	22.37652	446.99582	-41.71193	759.80737	-767.45306	-119.65672	562.90637	-192.97566	36.26036	568.55664	-185.43445	-168.93353	532.25555	688.59686	-20.95083	533.79779	698.05402	
5257	52.560	-293.19489	19.56969	-126.26276	130.17322	16.55794	-131.12117	-329.94659	24.19080	469.70648	96.77655	23.26932	446.87689	-44.15543	761.73859	-762.14996	-120.30920	562.53369	-194.12547	35.75236	567.98700	-186.07515	-171.02437	533.33667	687.71570	-23.06444	534.95325	697.34387	
5258	52.570	-294.37573	19.69044	-126.90346	129.18175	16.50198	-131.13620	-331.23056	25.41261	469.08884	95.77090	24.42521	446.70370	-47.16053	764.10956	-756.69574	-120.50336	561.92651	-194.93907	34.92653	567.46045	-186.89874	-172.41185	534.10266	686.61182	-24.96476	536.00757	696.59955	
5259	52.580	-295.10846	19.33351	-127.21220	128.23471	15.55619	-131.62157	-332.48889	26.33872	468.76373	94.94775	25.39727	446.26300	-50.63807	767.00110	-751.19159	-121.13204	561.28912	-195.70555	34.81721	566.97534	-187.66043	-174.36067	535.17877	685.71301	-26.25359	536.84033	696.08478	
5260	52.590	-295.87311	18.89805	-127.40994	127.52660	15.32816	-131.82217	-333.42740	26.96581	468.62494	93.49565	26.05408	445.89169	-54.49950	769.94922	-745.57422	-121.39310	560.99121	-196.49857	34.32825	566.74158	-188.22658	-175.91608	535.98969	684.78864	-28.09839	537.64063	694.89801	
5261	52.600	-296.98038	18.64541	-127.85233	126.18625	15.14401	-132.20685	-334.55099	27.90079	468.15964	92.75948	26.99088	445.70367	-59.11927	773.62018	-740.71503	-122.26910	561.00116	-197.62840	33.61007	566.36176	-189.02969	-177.24725	536.66083	684.07721	-29.47282	538.21954	694.21887	
5262	52.610	-297.61234	18.53950	-128.26427	125.35286	14.83197	-132.52563	-335.18036	28.76312	467.72171	92.01068	27.77868	445.34564	-63.63622	777.12439	-735.79633	-122.96096	560.80817	-198.28372	33.13225	566.32642	-189.74783	-178.55594	537.36871	683.24695	-30.65688	539.13824	693.35071	
5263	52.620	-299.07983	18.38205	-128.58464	124.65392	14.58858	-132.99139	-336.09662	29.63423	467.67932	90.77405	28.71431	445.16324	-68.78619	781.00177	-731.71655	-124.12568	560.68140	-198.93288	31.68081	566.30670	-190.56979	-179.28204	537.89600	682.54883	-31.38713	539.53125	692.72113	
